<svg width="128" height="128" viewBox="0 0 128 128" fill="none" xmlns="http://www.w3.org/2000/svg">
  <rect width="128" height="128" rx="28" fill="#05070D"/>
  <rect x="10" y="10" width="108" height="108" rx="22" stroke="#22D3EE" stroke-opacity="0.28"/>
  <path d="M35 89V38H59.5C70.2 38 77.5 44.8 77.5 54.5C77.5 64.3 70.2 71 59.5 71H47.2V89H35ZM47.2 60.7H58.3C62.8 60.7 65.3 58.3 65.3 54.6C65.3 50.8 62.8 48.4 58.3 48.4H47.2V60.7Z" fill="#F8FAFC"/>
  <path d="M77.6 90.2C64.7 90.2 55.7 80.8 55.7 67.5C55.7 54 65 44.8 78.4 44.8C87.2 44.8 94.6 49 98.1 56.1L87.9 61.3C86.1 57.3 82.7 55.2 78.4 55.2C71.9 55.2 67.9 60 67.9 67.5C67.9 75.2 72 80.1 78.2 80.1C83.5 80.1 87.2 77.4 88.2 72.8H77.1V63.7H100V70.1C100 82.3 91 90.2 77.6 90.2Z" fill="#22D3EE"/>
</svg>
